<?xml version="1.0" encoding="UTF-8"?>
<svg version="1.1" xmlns="http://www.w3.org/2000/svg" width="512" height="511">
<path d="M0 0 C9.05508392 6.62809434 14.27077749 16.64640761 19.625 26.25 C20.32329922 27.48924219 21.02245372 28.72800279 21.72241211 29.96630859 C22.79952567 31.87219417 23.87607297 33.77837684 24.94993591 35.68609619 C28.48331232 41.96307625 32.08037571 48.20264089 35.6875 54.4375 C36.92845591 56.58589678 38.16934132 58.73433429 39.41015625 60.8828125 C40.02262207 61.94274414 40.63508789 63.00267578 41.26611328 64.09472656 C44.38824607 69.49920649 47.50636526 74.90600107 50.625 80.3125 C51.24310547 81.38371094 51.86121094 82.45492187 52.49804688 83.55859375 C55.63722374 88.99896075 58.77499629 94.44012955 61.91015625 99.8828125 C67.4035269 109.41694913 72.90136483 118.94825875 78.4465332 128.45239258 C79.59841955 130.42744717 80.74803336 132.40382907 81.89526367 134.3815918 C84.91011833 139.56903552 87.97483317 144.718283 91.11328125 149.83203125 C91.76353271 150.90630371 92.41378418 151.98057617 93.08374023 153.08740234 C94.32620702 155.13797118 95.58398209 157.17937257 96.85961914 159.20947266 C100.26303097 164.86728331 102.54829094 169.62250929 101.125 176.3125 C99.33106332 179.18279869 98.14236724 180.80381638 95.125 182.3125 C93.13671875 182.5859375 93.13671875 182.5859375 90.8125 182.6875 C90.05324219 182.73648438 89.29398437 182.78546875 88.51171875 182.8359375 C84.14101858 181.87738787 81.70392008 178.18983978 79.32666016 174.5871582 C78.77800293 173.60577881 78.2293457 172.62439941 77.6640625 171.61328125 C77.03556396 170.50001465 76.40706543 169.38674805 75.75952148 168.23974609 C75.08965701 167.03484406 74.41981717 165.82992833 73.75 164.625 C73.042689 163.36747159 72.33442084 162.11048111 71.62524414 160.85400391 C70.16713888 158.26994507 68.71225663 155.68411204 67.25927734 153.09716797 C64.07265247 147.43435585 60.81732065 141.81130297 57.5625 136.1875 C56.32150618 134.03912511 55.08062084 131.89068756 53.83984375 129.7421875 C53.22737793 128.68225586 52.61491211 127.62232422 51.98388672 126.53027344 C48.86175393 121.12579351 45.74363474 115.71899893 42.625 110.3125 C42.00689453 109.24128906 41.38878906 108.17007813 40.75195312 107.06640625 C37.61277626 101.62603925 34.47500371 96.18487045 31.33984375 90.7421875 C24.70531733 79.22749361 18.05877171 67.72019529 11.34375 56.25219727 C8.30779282 51.06648915 5.2941614 45.86949366 2.3125 40.65234375 C1.37096069 39.01386475 1.37096069 39.01386475 0.41040039 37.34228516 C-0.78951623 35.2531715 -1.98340099 33.16057748 -3.17016602 31.06396484 C-7.38687886 23.74615768 -11.45936367 17.74601723 -19.6875 14.625 C-26.1852281 13.69675313 -32.11913901 13.94629786 -37.875 17.3125 C-41.30992668 20.42357733 -43.8693044 23.53776249 -46.25 27.5 C-46.57540771 28.03987549 -46.90081543 28.57975098 -47.23608398 29.13598633 C-52.56948249 38.05508247 -57.70853467 47.09242859 -62.88299561 56.10417175 C-66.37117198 62.17890522 -69.87290317 68.24578506 -73.375 74.3125 C-74.62506112 76.47913141 -75.875061 78.64579814 -77.125 80.8125 C-99.625 119.8125 -122.125 158.8125 -144.625 197.8125 C-145.24383057 198.88516113 -145.86266113 199.95782227 -146.50024414 201.06298828 C-147.74935518 203.22807071 -148.99854129 205.39310982 -150.24780273 207.55810547 C-153.38702309 212.99865706 -156.52490563 218.43997216 -159.66015625 223.8828125 C-165.68247329 234.33456199 -171.72169337 244.77549548 -177.8125 255.1875 C-182.88775123 263.86512241 -187.89758767 272.57855568 -192.875 281.3125 C-198.4150173 291.03365617 -204.00874809 300.72144658 -209.65844727 310.37939453 C-213.90117267 317.63461716 -218.11499497 324.90602496 -222.3125 332.1875 C-222.93447266 333.26644531 -223.55644531 334.34539062 -224.19726562 335.45703125 C-226.09029126 338.74192992 -227.98275598 342.02715103 -229.875 345.3125 C-232.3950909 349.6879283 -234.91591415 354.06293308 -237.4375 358.4375 C-238.04859619 359.49831787 -238.65969238 360.55913574 -239.28930664 361.65209961 C-242.4722099 367.17117899 -245.67116701 372.68022222 -248.89453125 378.17578125 C-249.54156006 379.27970215 -250.18858887 380.38362305 -250.85522461 381.52099609 C-252.0917783 383.6282837 -253.33076341 385.73414697 -254.57250977 387.83837891 C-255.12350342 388.7772998 -255.67449707 389.7162207 -256.2421875 390.68359375 C-256.97091064 391.9200061 -256.97091064 391.9200061 -257.71435547 393.18139648 C-260.88429227 399.00183787 -260.96952676 406.33659857 -259.2265625 412.66796875 C-256.99574366 417.5967437 -253.5439353 421.55158534 -248.875 424.3125 C-243.87777034 425.99235525 -239.54963078 426.56348256 -234.28930759 426.56697559 C-233.55425002 426.57018207 -232.81919245 426.57338855 -232.06186041 426.57669219 C-229.60338039 426.58498122 -227.14514469 426.5790718 -224.68666077 426.57319641 C-222.90440554 426.57621759 -221.1221516 426.5801069 -219.33989996 426.58478898 C-214.44565809 426.59508193 -209.55148937 426.59288385 -204.65724146 426.58860838 C-199.37767216 426.58614354 -194.09812058 426.59515229 -188.81855774 426.60264587 C-178.47688769 426.61540134 -168.1352436 426.61718553 -157.79356701 426.61484561 C-149.38895524 426.61306334 -140.98435135 426.61481013 -132.57974052 426.61907005 C-131.38404268 426.61966524 -130.18834484 426.62026043 -128.95641373 426.62087366 C-126.52744631 426.62208539 -124.0984789 426.62329953 -121.66951149 426.62451603 C-98.88614713 426.63539471 -76.10279757 426.63322745 -53.31943237 426.62713119 C-32.47071545 426.62196097 -11.62204523 426.63321966 9.22666245 426.65222941 C30.62936198 426.67159484 52.0320394 426.67986613 73.43474776 426.67610615 C85.45267337 426.67419224 97.47055923 426.67670024 109.48847771 426.69082069 C119.71864999 426.70271891 129.94875803 426.70415685 140.17893117 426.69203053 C145.39912456 426.68613108 150.61920034 426.68507189 155.83938599 426.69703293 C160.61800958 426.70785507 165.39641686 426.70483215 170.17503018 426.69077124 C171.90375388 426.6881142 173.63249433 426.69052233 175.36120164 426.69850711 C177.71221726 426.70861258 180.06248081 426.70019218 182.41346645 426.68723011 C183.71894764 426.68728513 185.02442883 426.68734014 186.36947006 426.68739682 C193.93274194 425.9323911 200.04740987 422.98113237 205.125 417.3125 C208.80958355 411.36962331 209.13620477 405.17849545 208.125 398.3125 C206.61720417 394.00789072 204.44519246 390.22928366 202.125 386.3125 C201.42506317 385.10588501 200.72587887 383.89883326 200.02734375 382.69140625 C198.39314276 379.88511046 196.73989129 377.09083277 195.078125 374.30078125 C191.64461438 368.52292234 188.29142566 362.69930652 184.9375 356.875 C184.30013916 355.76882324 183.66277832 354.66264648 183.00610352 353.52294922 C181.69737584 351.25126335 180.38886516 348.97945245 179.08056641 346.70751953 C175.93167946 341.2408002 172.77816736 335.77675113 169.625 330.3125 C168.3749765 328.14584689 167.12497653 325.97918021 165.875 323.8125 C165.25625 322.74 164.6375 321.6675 164 320.5625 C162.125 317.3125 160.25 314.0625 158.375 310.8125 C157.7560083 309.73959717 157.1370166 308.66669434 156.49926758 307.5612793 C155.2516526 305.39871417 154.00409384 303.23611661 152.7565918 301.07348633 C148.9545028 294.48250375 145.15072877 287.89249993 141.34399414 281.30419922 C140.08430309 279.12099284 138.82693449 276.93644459 137.57202148 274.75048828 C134.59699308 269.57037373 131.59539456 264.41161307 128.515625 259.29296875 C127.67197388 257.87141479 127.67197388 257.87141479 126.8112793 256.42114258 C125.7643445 254.65862131 124.70422492 252.90383318 123.62817383 251.15893555 C120.53318194 245.90599725 119.36856988 242.42313981 120.125 236.3125 C121.36534068 233.42020116 122.67478758 232.49638498 125.125 230.3125 C129.46297114 228.70933675 132.26360324 229.39375796 136.43017578 231.27905273 C139.32326097 233.04315956 140.51076318 235.44583276 142.125 238.375 C142.48835449 239.01783936 142.85170898 239.66067871 143.22607422 240.32299805 C144.06155116 241.80160582 144.88895998 243.28479003 145.70996094 244.77148438 C147.87306569 248.65581741 150.11455515 252.49407025 152.34570312 256.33959961 C154.29213092 259.69768664 156.22936973 263.06092102 158.1640625 266.42578125 C161.97794024 273.05840859 165.80046481 279.68601383 169.625 286.3125 C170.8750423 288.47914226 172.12504224 290.64580897 173.375 292.8125 C173.99375 293.885 174.6125 294.9575 175.25 296.0625 C182.125 307.97916667 189 319.89583333 195.875 331.8125 C196.49439453 332.8859668 197.11378906 333.95943359 197.75195312 335.06542969 C198.99596929 337.22202706 200.23946293 339.37892594 201.48242188 341.53613281 C204.35956071 346.52810455 207.24131203 351.51716661 210.14260864 356.49514771 C233.63182078 396.79843505 233.63182078 396.79843505 229.44140625 417.7265625 C225.4368665 429.52416924 216.73772548 438.1542797 206.125 444.3125 C199.08742535 447.62655788 192.32027093 448.43662393 184.61105919 448.44392776 C183.50187094 448.44700672 183.50187094 448.44700672 182.37027484 448.45014787 C179.89082518 448.45580525 177.41143129 448.45436218 174.93197632 448.45294189 C173.13693669 448.45552625 171.34189764 448.45853961 169.54685938 448.4619453 C164.61249378 448.47001023 159.67814273 448.47180459 154.74377131 448.47254276 C149.42253018 448.4743942 144.10129659 448.48194199 138.78005981 448.48867798 C127.14361789 448.50225823 115.50717941 448.50828554 103.87073088 448.51268864 C96.60436778 448.51545158 89.33800602 448.51968903 82.07164383 448.52419281 C61.95174175 448.53638507 41.83184074 448.54668447 21.71193504 448.5500679 C20.42428601 448.55028747 19.13663697 448.55050703 17.80996827 448.55073325 C16.51924506 448.55095153 15.22852185 448.55116981 13.89868581 448.5513947 C11.28320591 448.55183817 8.667726 448.55228473 6.05224609 448.55273438 C4.10619513 448.55306652 4.10619513 448.55306652 2.12083001 448.55340537 C-18.89984181 448.55735315 -39.92047896 448.57480677 -60.94113739 448.5980939 C-82.52462352 448.62181147 -104.10809225 448.63426994 -125.69159162 448.63543582 C-137.8091498 448.63635235 -149.9266628 448.64209919 -162.04420853 448.66025543 C-172.36285283 448.67566186 -182.681438 448.68077365 -193.00009163 448.67251733 C-198.26330706 448.66861278 -203.52640343 448.66953102 -208.78960419 448.68357468 C-213.61226438 448.696325 -218.43471616 448.69510607 -223.25737612 448.68298396 C-224.99764302 448.68102894 -226.73792474 448.68409637 -228.47817083 448.69282833 C-243.70895822 448.76438373 -256.86656708 447.31999593 -268.6875 436.8125 C-269.409375 435.9875 -270.13125 435.1625 -270.875 434.3125 C-271.720625 433.384375 -272.56625 432.45625 -273.4375 431.5 C-282.34083715 420.6587125 -281.88803856 407.84482987 -281.20410156 394.45947266 C-280.51785006 387.89731993 -277.82086633 383.04977828 -274.3046875 377.58105469 C-272.6298585 374.92352205 -271.08034692 372.20928809 -269.53125 369.4765625 C-266.34882149 363.86818789 -263.11359455 358.29259657 -259.86279297 352.72363281 C-256.68133648 347.26412531 -253.52922297 341.78777059 -250.375 336.3125 C-249.12515042 334.14574656 -247.87515017 331.97908002 -246.625 329.8125 C-245.696875 328.20375 -245.696875 328.20375 -244.75 326.5625 C-232.875 305.97916667 -221 285.39583333 -209.125 264.8125 C-208.50616943 263.73983887 -207.88733887 262.66717773 -207.24975586 261.56201172 C-206.00064482 259.39692929 -204.75145871 257.23189018 -203.50219727 255.06689453 C-200.36297691 249.62634294 -197.22509437 244.18502784 -194.08984375 238.7421875 C-188.06752671 228.29043801 -182.02830663 217.84950452 -175.9375 207.4375 C-170.86224877 198.75987759 -165.85241233 190.04644432 -160.875 181.3125 C-155.3349827 171.59134383 -149.74125191 161.90355342 -144.09155273 152.24560547 C-137.93733258 141.72165375 -131.85130004 131.15869863 -125.76611328 120.59472656 C-122.63819852 115.16590058 -119.50641552 109.73930719 -116.375 104.3125 C-115.12498121 102.14584417 -113.87498122 99.9791775 -112.625 97.8125 C-105.125 84.8125 -97.625 71.8125 -90.125 58.8125 C-89.50560547 57.73863037 -88.88621094 56.66476074 -88.24804688 55.55834961 C-87.0054412 53.40500727 -85.76196011 51.25216984 -84.51757812 49.09985352 C-81.61467903 44.07651305 -78.72016531 39.04895818 -75.85803223 34.00228882 C-74.85091775 32.2274753 -73.84093131 30.45432699 -72.83007812 28.68164062 C-71.56785734 26.46613421 -70.31095275 24.24758664 -69.06054688 22.02539062 C-61.77143127 9.26333011 -53.94858488 -1.19354849 -39.5625 -6.1875 C-25.64908011 -9.87579119 -11.95908708 -8.17394629 0 0 Z " fill="#000000" transform="translate(280.875,35.6875)"/>
<path d="M0 0 C6.09675004 5.17406181 10.37174773 12.08815196 11.32217216 20.12423325 C11.43395577 22.82356718 11.45596167 25.5088178 11.44311523 28.21044922 C11.44997849 29.22943298 11.45684174 30.24841675 11.46391296 31.29827881 C11.4821313 34.64821527 11.47835011 37.99768113 11.47265625 41.34765625 C11.47722069 43.68881379 11.48252704 46.02997 11.48854065 48.37112427 C11.49746224 53.27172294 11.49505966 58.17215856 11.48510742 63.07275391 C11.47362415 69.33591571 11.49382492 75.59851318 11.52302456 81.86160088 C11.5414197 86.69507389 11.54108736 91.52841252 11.53538704 96.36191177 C11.5352342 98.67025671 11.54124704 100.97861098 11.55367851 103.28692245 C11.56864744 106.52220227 11.55786703 109.75645046 11.54077148 112.99169922 C11.55043945 113.93435638 11.56010742 114.87701355 11.57006836 115.84823608 C11.47228727 124.73815458 8.88223494 132.62502654 2.7421875 139.19921875 C-5.48137635 146.59288166 -14.19539385 148.31236942 -24.97265625 148.04296875 C-33.35835081 147.5686424 -40.3638745 143.95577352 -45.9609375 137.73046875 C-51.77782853 129.99524132 -53.26052305 123.01070041 -53.25146484 113.47753906 C-53.25818207 112.45884735 -53.26489929 111.44015564 -53.27182007 110.39059448 C-53.29078485 107.02987765 -53.29472371 103.66936074 -53.296875 100.30859375 C-53.30330459 97.96457844 -53.31003307 95.62056393 -53.31704712 93.27655029 C-53.32901654 88.36403545 -53.33272834 83.4515909 -53.33154297 78.5390625 C-53.33133995 72.26017506 -53.35862695 65.98174106 -53.39308739 59.70296097 C-53.41538334 54.86092073 -53.41937965 50.01898908 -53.41832352 45.17690277 C-53.42067599 42.86296783 -53.42947942 40.54902973 -53.44498825 38.23514557 C-53.46469956 34.99010473 -53.45878912 31.7460348 -53.44677734 28.50097656 C-53.45801636 27.55517731 -53.46925537 26.60937805 -53.48083496 25.63491821 C-53.39432697 16.38520998 -50.53828321 8.36495237 -44.15625 1.5546875 C-30.72825177 -9.60345338 -14.02838423 -10.03797811 0 0 Z M-29.9609375 17.73046875 C-33.45984231 22.97882596 -33.11361319 28.30108511 -33.12207031 34.44873047 C-33.12703522 35.3160379 -33.13200012 36.18334534 -33.13711548 37.07693481 C-33.15168671 39.93801678 -33.15853012 42.79904332 -33.1640625 45.66015625 C-33.16981738 47.65406291 -33.17557507 49.64796957 -33.18133545 51.64187622 C-33.19183059 55.81968442 -33.19768322 59.99747345 -33.20117188 64.17529297 C-33.20665844 69.52063387 -33.23069632 74.86572029 -33.25914383 80.21098137 C-33.27779274 84.32887507 -33.28297698 88.44670768 -33.28450775 92.56464005 C-33.28752888 94.53495808 -33.29553913 96.50527517 -33.30869293 98.47555161 C-33.32580316 101.23503617 -33.32386123 103.99390146 -33.31738281 106.75341797 C-33.3265976 107.56196228 -33.33581238 108.37050659 -33.3453064 109.20355225 C-33.29892795 115.52989054 -32.12113418 120.32339245 -27.7734375 125.16796875 C-24.11135248 127.20246043 -21.00259573 127.64003959 -16.9609375 126.73046875 C-12.09917232 123.66935734 -10.34589453 121.21315659 -8.9609375 115.73046875 C-8.69030906 112.77823773 -8.68734909 109.84588454 -8.70214844 106.8828125 C-8.6986438 106.01375275 -8.69513916 105.14469299 -8.69152832 104.2492981 C-8.68275651 101.3887727 -8.68854408 98.52849648 -8.6953125 95.66796875 C-8.69396454 93.67309522 -8.69202292 91.67822202 -8.68951416 89.68334961 C-8.68656906 85.50729233 -8.69084082 81.33132074 -8.70019531 77.15527344 C-8.71158944 71.80878375 -8.70502669 66.46249489 -8.69305038 61.11601257 C-8.68581524 56.99815362 -8.68812733 52.88034209 -8.69330597 48.76248169 C-8.69463788 46.79135108 -8.69301083 44.82021612 -8.68834686 42.84909058 C-8.68325447 40.09198641 -8.69103002 37.33520519 -8.70214844 34.578125 C-8.69809998 33.76755646 -8.69405151 32.95698792 -8.68988037 32.12185669 C-8.7337456 26.23506473 -9.43024806 21.69849803 -13.1484375 16.91796875 C-19.44718843 12.01894025 -23.99652786 13.52029724 -29.9609375 17.73046875 Z " fill="#000000" transform="translate(275.9609375,183.26953125)"/>
<path d="M0 0 C0.96679688 0.62261719 0.96679688 0.62261719 1.953125 1.2578125 C2.65953125 1.69351562 3.3659375 2.12921875 4.09375 2.578125 C10.99959584 7.25875385 14.75028524 13.25802601 16.953125 21.2578125 C17.95164012 32.35758522 17.30259702 41.9922991 10.203125 51.0703125 C4.54543013 57.1280464 -2.50113592 60.84888618 -10.78125 61.59375 C-21.51072774 61.83515993 -30.35427606 60.58332943 -38.515625 52.9609375 C-45.90928791 44.73737365 -47.62877567 36.02335615 -47.359375 25.24609375 C-46.88504865 16.86039919 -43.27217977 9.8548755 -37.046875 4.2578125 C-26.81601622 -3.4357933 -11.70189147 -6.38691023 0 0 Z M-25.046875 23.2578125 C-26.66117423 26.48641097 -26.64258157 29.76774903 -26.046875 33.2578125 C-24.31085395 36.28289395 -22.21107363 38.67571319 -19.046875 40.2578125 C-13.92317102 40.86510095 -13.92317102 40.86510095 -9.22265625 39.2109375 C-5.41934756 36.07988435 -4.16024133 34.39147582 -3.671875 29.5078125 C-3.69628725 26.15723182 -4.29086146 24.40886718 -6.421875 21.8203125 C-9.9517336 18.37449815 -11.9752402 17.86225414 -16.94140625 17.8984375 C-20.66280953 18.53363064 -22.45000349 20.59760266 -25.046875 23.2578125 Z " fill="#000000" transform="translate(270.046875,357.7421875)"/>
<path d="M0 0 C2.82275936 1.25455972 4.46288541 2.28384722 6.3125 4.75 C7.63189267 9.06801237 7.58520303 12.68329318 5.75 16.8125 C2.94078012 20.32402485 1.06678489 20.86171307 -3.375 21.4375 C-8.11973172 20.86485997 -9.86582008 19.58191991 -13 16 C-14.43064673 12.03574984 -14.45050933 9.06699577 -12.8125 5.1875 C-8.85218865 0.40781389 -6.33719383 -0.66707303 0 0 Z " fill="#000000" transform="translate(397,235)"/>
</svg>
